<?xml version="1.0" encoding="UTF-8"?>
<svg id="Camada_2" data-name="Camada 2" xmlns="http://www.w3.org/2000/svg" viewBox="0 0 303.08 339.5">
  <defs>
    <style>
      .cls-1 {
        fill: #30b7eb;
      }
    </style>
  </defs>
  <g id="Camada_2-2" data-name="Camada 2">
    <path class="cls-1" d="M169.37,290.38c.34,4.19,1.06,8.39,.92,12.56-.23,6.96-.74,13.94-1.71,20.83-.4,2.87-1.94,5.76-3.55,8.26-6.43,9.97-21.05,10.05-26.93-.25-2.72-4.77-4.4-10.57-4.91-16.05-.68-7.38,.22-14.9,.44-22.37,.03-.95,0-1.91-.75-3.65-2.36,2.01-4.66,4.08-7.08,6.01-4.12,3.29-8.08,6.86-12.55,9.6-3.39,2.09-7.55,2.25-10.93-.49-3.45-2.8-3.89-6.71-3.14-10.91,2.17-12.17,8.88-21.87,17.03-30.64,4.85-5.21,10.39-9.77,15.42-14.82,1.23-1.23,2.23-3.19,2.36-4.9,.29-3.72,1.18-8.18-.46-11.02-1.54-2.66-6.09-3.51-9.2-5.36-4.46-2.66-8.92-5.34-13.14-8.35-2.03-1.45-3.34-1.26-5.46-.23-7.29,3.55-11.35,8.34-12.29,17.19-1.41,13.24-5.63,26.07-13.85,36.95-2.77,3.66-6.41,6.99-10.33,9.36-4.86,2.94-9.51,.84-11.83-4.42-2.37-5.38-1.56-10.88-.4-16.38,.72-3.42,1.38-6.85,1.97-10.29,.13-.75-.17-1.57-.36-3.03-2.67,2.1-4.85,3.91-7.13,5.59-7.64,5.63-15.59,10.71-25.08,12.6-6.62,1.32-12.78,.55-17.59-4.9-4.57-5.19-5.3-13.04-1.55-19.27,5.26-8.73,13.44-14.08,22.15-18.75,3.27-1.76,6.66-3.3,10.16-5.93-1.77-.73-3.5-1.62-5.33-2.16-4.4-1.29-9.01-2.02-13.22-3.74-3.03-1.24-5.91-3.36-8.22-5.7-3.55-3.6-3.39-8.2,.41-11.51,2.29-2,5.2-3.59,8.1-4.55,12.27-4.03,24.63-2.4,36.87,.3,5.18,1.14,10.27,2.77,15.32,4.4,2.26,.73,3.99,.37,6.12-.64,7.44-3.54,11.66-7.75,8.67-17.18-1.62-5.1-.14-11.24,.23-16.9,.16-2.45-.41-3.83-2.58-5.29-6.52-4.38-12.5-5.6-20.35-2.02-11.94,5.44-24.92,7.92-38.19,6.74-4.47-.4-9.12-1.55-13.17-3.44-6.46-3.02-7.25-9.41-2.37-14.64,3.86-4.14,8.92-6.06,14.2-7.62,3.61-1.07,7.15-2.42,10.71-3.64-.02-.45-.05-.89-.07-1.34-1.36-.58-2.7-1.2-4.08-1.73-10.33-4.04-20.18-8.84-27.72-17.33-7.99-9-6.16-22.4,4.24-26.49,4.31-1.69,9.8-1.63,14.49-.81,10.07,1.76,18.59,7.29,26.86,13.08,.95,.67,1.91,1.32,3.82,1.59-.32-2.01-.52-4.06-.99-6.03-1.07-4.45-2.46-8.84-3.34-13.32-.43-2.18-.31-4.57,.07-6.78,1.46-8.5,8.06-11.34,15.23-6.56,6.62,4.41,11.11,10.7,14.77,17.61,5.35,10.13,8.79,20.94,10.87,32.17,.53,2.87,2.06,4.41,4.41,6.08,6.52,4.62,11.58,5.01,17.97-1.21,4.64-4.51,11.61-6.7,17.68-9.64,2.01-.97,3.21-1.97,3.08-4.23,0-.12,0-.24,.02-.36,.86-7.33-.65-12.98-7.19-18.1-10.39-8.13-19.14-18.2-24.47-30.6-1.6-3.74-2.77-7.77-3.43-11.78-1.33-8.08,5.35-13.74,12.84-10.46,4.72,2.07,8.78,5.77,12.94,8.99,2.79,2.15,5.24,4.74,7.84,7.13,.35-.21,.7-.42,1.05-.63-.4-5.1-1.03-10.19-1.13-15.3-.16-7.99,.26-15.98,3.78-23.39C139.39,3.87,144.11-.02,151.61,0c7.51,.02,12.21,3.95,15.19,10.36,3.46,7.42,3.97,15.39,3.72,23.4-.16,5.04-.77,10.06-1.17,15.09,.3,.26,.6,.52,.89,.78,2.44-2.15,4.8-4.4,7.35-6.41,4.13-3.27,8.16-6.76,12.66-9.45,3.31-1.98,7.44-2,10.62,.65,3.23,2.69,3.79,6.51,3.08,10.61-2.13,12.31-8.87,22.13-17.1,31-4.76,5.13-10.23,9.59-15.13,14.59-1.36,1.39-2.3,3.56-2.65,5.51-1.37,7.62,.13,13.14,9.08,15.54,5.12,1.38,9.55,5.5,14.12,8.64,1.83,1.25,3.02,1.4,5.12,.37,7.27-3.59,11.33-8.35,12.28-17.21,1.46-13.48,5.75-26.53,14.29-37.52,2.67-3.44,6.15-6.59,9.89-8.79,4.99-2.93,9.83-.66,11.98,4.76,2.16,5.43,1.37,10.91,.14,16.4-.89,4.01-1.58,8.07-2.36,12.11,.4,.19,.79,.37,1.19,.56,1.18-.91,2.38-1.8,3.54-2.73,8.55-6.86,17.51-13.02,28.51-15.2,5.49-1.09,10.9-.78,15.47,3.06,6.49,5.45,7.83,14.16,3.19,21.64-5.15,8.31-13.04,13.49-21.39,18.03-3.46,1.88-7.05,3.54-10.57,5.3-.03,.39-.05,.77-.08,1.16,2.89,.9,5.8,1.75,8.68,2.7,4.56,1.51,9.28,2.72,13.6,4.76,3.92,1.86,7.13,5.15,6.88,9.87-.25,4.74-3.83,7.37-7.94,9.04-8.38,3.4-17.22,4.34-26,2.83-10.08-1.74-19.99-4.47-29.99-6.71-1.11-.25-2.54-.5-3.42-.02-3.7,2.04-7.3,4.29-10.82,6.63-.58,.38-.99,1.69-.82,2.41,2.25,9.81,2.08,19.65,.51,29.5,3.87,2.06,7.49,4.27,11.34,5.92,1.54,.66,3.82,.66,5.39,.02,10.25-4.13,20.67-7.86,31.71-8.65,7.14-.51,14.4,.49,21.58,1.08,1.71,.14,3.44,1.14,4.99,2.05,6.02,3.52,6.85,9.42,2.09,14.56-3.84,4.16-8.88,6.11-14.17,7.67-3.62,1.07-7.17,2.4-10.75,3.62,.02,.43,.03,.86,.05,1.3,1.33,.6,2.65,1.25,4.01,1.78,10.44,4.08,20.46,8.87,27.97,17.56,7.58,8.77,5.86,21.15-3.63,26.13-4.87,2.56-10.11,2.26-15.24,1.12-10.12-2.25-18.79-7.52-27.14-13.42-.69-.49-1.37-1-2.08-1.45-.18-.11-.46-.05-1.51-.14,.33,2.15,.5,4.18,.96,6.14,1.09,4.57,2.6,9.06,3.39,13.68,.45,2.65,.2,5.57-.41,8.2-1.5,6.45-7.48,9.21-13.19,5.66-3.92-2.44-7.6-5.69-10.47-9.31-9.48-11.95-13.82-26.19-16.82-40.86-.63-3.1-2.13-4.83-4.72-6.67-6.54-4.63-11.63-5.01-18,1.09-4.52,4.33-11.16,6.53-17.04,9.3-2.29,1.08-3.62,2.2-3.45,4.75,0,.12,0,.24-.01,.36-.95,7.51,.83,13.21,7.42,18.39,10.38,8.16,19.09,18.25,24.37,30.68,1.54,3.63,2.64,7.55,3.29,11.45,1.33,7.97-4.74,13.08-12.5,10.77-5.66-1.68-9.82-5.51-13.79-9.67-2.28-2.39-4.87-4.48-7.33-6.71l-1.09,.71Zm-17.79-95.5c14.05-.02,25.71-11.66,25.63-25.6-.07-13.98-11.72-25.41-25.85-25.37-13.84,.04-25.41,11.59-25.45,25.4-.04,13.94,11.65,25.58,25.67,25.56Z"/>
  </g>
</svg>